<svg width="98" height="26" viewBox="0 0 98 26" fill="none" xmlns="http://www.w3.org/2000/svg">
<g clip-path="url(#clip0)">
<path d="M57.2272 17.177L56.1764 17.1798V9.42271H57.2272C60.1206 9.42271 61.1634 11.3613 61.1634 13.2999C61.1634 15.2381 60.1206 17.177 57.2272 17.177V17.177ZM57.3986 7.1756H53.6031V19.4016H57.3986C60.5543 19.4016 63.7562 17.5291 63.7562 13.2999C63.7562 9.07037 60.5543 7.1756 57.3986 7.1756ZM52.2511 10.804C52.2511 8.38675 50.4427 6.98132 48.2805 6.98132C46.1359 6.98132 43.7982 8.27024 43.7982 10.7762C43.7982 12.9492 46.1261 14.0666 47.4554 14.4181C48.1851 14.6163 50.0265 14.828 50.0265 16.1801C50.0265 17.4648 48.7399 17.8151 47.7765 17.8151C46.5347 17.8151 45.8066 16.9224 45.9138 15.5725H43.473C43.3874 18.6164 45.4024 19.7509 47.7549 19.8062C50.4744 19.8705 52.5506 18.6762 52.5506 15.9863C52.5506 13.281 50.1957 12.8549 48.3545 12.2412C47.6407 12.0031 46.3204 11.7908 46.3204 10.5426C46.3204 9.49767 47.1985 8.99654 48.0976 8.99654C49.2534 8.99654 49.8527 9.58443 49.9388 10.804H52.2511V10.804ZM38.827 7.18964H42.5184V19.4269H39.7833V11.1968L36.2838 19.4266L32.6009 11.1867V19.4266H30.0483V7.18936H33.6965L36.3269 13.523L38.827 7.18936" fill="#00857A"/>
<path d="M12.0147 13.3083C15.3048 13.3083 17.9714 16.0484 17.9714 19.4277C21.261 19.4277 23.9286 16.6882 23.9286 13.308C23.9286 9.9289 21.2612 7.18935 17.9714 7.18935C17.9714 10.5696 15.3048 13.308 12.0147 13.308V13.3083ZM6.05774 19.4275C6.05774 22.8077 8.72507 25.5467 12.0147 25.5467C15.3048 25.5467 17.9714 22.8074 17.9714 19.4275H6.05774V19.4275ZM6.05774 19.4275C6.05774 16.0478 8.72507 13.3077 12.0147 13.3077C8.7248 13.3077 6.05774 10.569 6.05774 7.18907C2.76813 7.18935 0.101074 9.92862 0.101074 13.3077C0.101074 16.6879 2.76813 19.4275 6.05774 19.4275ZM6.05774 7.18879C6.05774 3.80998 8.72507 1.07043 12.0147 1.07043C15.3048 1.07043 17.9714 3.80998 17.9714 7.18963H6.05774" fill="#00857A"/>
<path d="M75.8509 19.4011H74.5826V10.1249L71.3277 17.4808H70.2427L66.9378 10.1249V19.4011H65.6694V7.19275H66.9378L70.8103 15.8519L74.5826 7.19275H75.8509V19.4011V19.4011ZM86.6738 19.4011H79.296V7.19275H86.6738V8.3587H80.5647V12.6626H85.7725V13.8285H80.5647V18.2354H86.6738V19.4014V19.4011ZM97.5164 11.411C97.5388 11.8453 97.55 12.4739 97.55 13.2971C97.55 14.1199 97.5388 14.7485 97.5164 15.1831C97.4943 15.6175 97.3997 16.1265 97.2327 16.7093C97.0657 17.2806 96.8211 17.7495 96.4984 18.1153C95.7304 18.9727 94.69 19.4011 93.3771 19.4011H89.3045V7.19275H93.3771C94.69 7.19275 95.7304 7.62145 96.4984 8.47858C96.8211 8.84467 97.0657 9.31886 97.2327 9.90197C97.3997 10.4736 97.4943 10.9764 97.5164 11.4107V11.411ZM96.248 14.9602C96.2702 14.5717 96.2814 14.0169 96.2814 13.2971C96.2814 12.5769 96.2702 12.0225 96.248 11.6336C96.2256 11.2451 96.1535 10.8167 96.0311 10.3478C95.9198 9.87895 95.7416 9.51314 95.4968 9.25036C94.974 8.65601 94.1951 8.3587 93.1601 8.3587H90.5729V18.2354H93.1601C94.1951 18.2354 94.974 17.9378 95.4968 17.3435C95.7416 17.0807 95.9198 16.7149 96.0311 16.2463C96.1535 15.7775 96.2256 15.3488 96.248 14.9602Z" fill="#00857A"/>
</g>
<defs>
<clipPath id="clip0">
<rect width="97.5652" height="24.7059" fill="white" transform="translate(0 0.882324)"/>
</clipPath>
</defs>
</svg>
