<svg width="24" height="25" viewBox="0 0 24 25" fill="none" xmlns="http://www.w3.org/2000/svg">
<path d="M14.6673 15.6431C14.1316 15.5087 13.5884 15.8341 13.4541 16.3698C13.3198 16.9055 13.6451 17.4486 14.1808 17.583L14.6673 15.6431ZM9.81917 17.583C10.3549 17.4486 10.6802 16.9055 10.5459 16.3698C10.4116 15.8341 9.86839 15.5087 9.33269 15.6431L9.81917 17.583ZM12 17.8794V16.8794V17.8794ZM21 12.2128C21 17.1833 16.9706 21.2128 12 21.2128V23.2128C18.0751 23.2128 23 18.2879 23 12.2128H21ZM12 21.2128C7.02944 21.2128 3 17.1833 3 12.2128H1C1 18.2879 5.92487 23.2128 12 23.2128V21.2128ZM3 12.2128C3 7.24221 7.02944 3.21277 12 3.21277V1.21277C5.92487 1.21277 1 6.13764 1 12.2128H3ZM12 3.21277C16.9706 3.21277 21 7.24221 21 12.2128H23C23 6.13764 18.0751 1.21277 12 1.21277V3.21277ZM17 19.7267V20.2128H19V19.7267H17ZM7 20.2128V19.7267H5V20.2128H7ZM14.1808 17.583C15.1254 17.8199 15.8677 18.193 16.3525 18.6071C16.8365 19.0204 17 19.411 17 19.7267H19C19 18.6523 18.4287 17.7501 17.6513 17.0862C16.8747 16.423 15.829 15.9344 14.6673 15.6431L14.1808 17.583ZM9.33269 15.6431C8.17103 15.9344 7.12534 16.423 6.34872 17.0862C5.57133 17.7501 5 18.6523 5 19.7267H7C7 19.411 7.16353 19.0204 7.64755 18.6071C8.13234 18.193 8.87462 17.8199 9.81917 17.583L9.33269 15.6431ZM12 18.8794C13.8317 18.8794 15.2173 17.4508 16.0824 15.8251C16.9767 14.1445 17.5 11.9461 17.5 9.7446H15.5C15.5 11.6586 15.0394 13.5277 14.3168 14.8856C13.565 16.2984 12.7007 16.8794 12 16.8794V18.8794ZM17.5 9.7446C17.5 7.06951 14.8432 5.21277 12 5.21277V7.21277C14.1943 7.21277 15.5 8.58035 15.5 9.7446H17.5ZM12 5.21277C9.15681 5.21277 6.5 7.06951 6.5 9.7446H8.5C8.5 8.58035 9.80571 7.21277 12 7.21277V5.21277ZM6.5 9.7446C6.5 11.9461 7.02326 14.1445 7.91759 15.8251C8.78267 17.4508 10.1683 18.8794 12 18.8794V16.8794C11.2993 16.8794 10.435 16.2984 9.68317 14.8856C8.96059 13.5277 8.5 11.6586 8.5 9.7446H6.5Z" fill="#272727"/>
</svg>
