<svg width="24" height="25" viewBox="0 0 24 25" fill="none" xmlns="http://www.w3.org/2000/svg">
<path d="M14.6673 16.2313C14.1316 16.097 13.5884 16.4223 13.4541 16.958C13.3198 17.4937 13.6451 18.0369 14.1808 18.1712L14.6673 16.2313ZM9.81917 18.1712C10.3549 18.0369 10.6802 17.4937 10.5459 16.958C10.4116 16.4223 9.86839 16.097 9.33269 16.2313L9.81917 18.1712ZM12 18.4677V17.4677V18.4677ZM21 12.801C21 17.7716 16.9706 21.801 12 21.801V23.801C18.0751 23.801 23 18.8762 23 12.801H21ZM12 21.801C7.02944 21.801 3 17.7716 3 12.801H1C1 18.8762 5.92487 23.801 12 23.801V21.801ZM3 12.801C3 7.83046 7.02944 3.80103 12 3.80103V1.80103C5.92487 1.80103 1 6.72589 1 12.801H3ZM12 3.80103C16.9706 3.80103 21 7.83046 21 12.801H23C23 6.72589 18.0751 1.80103 12 1.80103V3.80103ZM17 20.3149V20.801H19V20.3149H17ZM7 20.801V20.3149H5V20.801H7ZM14.1808 18.1712C15.1254 18.4081 15.8677 18.7813 16.3525 19.1953C16.8365 19.6087 17 19.9992 17 20.3149H19C19 19.2405 18.4287 18.3384 17.6513 17.6745C16.8747 17.0112 15.829 16.5226 14.6673 16.2313L14.1808 18.1712ZM9.33269 16.2313C8.17103 16.5226 7.12534 17.0112 6.34872 17.6745C5.57133 18.3384 5 19.2405 5 20.3149H7C7 19.9992 7.16353 19.6087 7.64755 19.1953C8.13234 18.7813 8.87462 18.4081 9.81917 18.1712L9.33269 16.2313ZM12 19.4677C13.8317 19.4677 15.2173 18.039 16.0824 16.4134C16.9767 14.7327 17.5 12.5344 17.5 10.3329H15.5C15.5 12.2469 15.0394 14.1159 14.3168 15.4738C13.565 16.8867 12.7007 17.4677 12 17.4677V19.4677ZM17.5 10.3329C17.5 7.65777 14.8432 5.80103 12 5.80103V7.80103C14.1943 7.80103 15.5 9.1686 15.5 10.3329H17.5ZM12 5.80103C9.15681 5.80103 6.5 7.65777 6.5 10.3329H8.5C8.5 9.1686 9.80571 7.80103 12 7.80103V5.80103ZM6.5 10.3329C6.5 12.5344 7.02326 14.7327 7.91759 16.4134C8.78267 18.039 10.1683 19.4677 12 19.4677V17.4677C11.2993 17.4677 10.435 16.8867 9.68317 15.4738C8.96059 14.1159 8.5 12.2469 8.5 10.3329H6.5Z" fill="white"/>
</svg>
